<svg id="Layer_1" data-name="Layer 1" xmlns="http://www.w3.org/2000/svg" viewBox="0 0 512 512"><defs><style>.cls-1{fill:#c3e2c8;}.cls-2{fill:#39b677;}</style></defs><circle class="cls-1" cx="256" cy="256" r="256"/><path class="cls-2" d="M226.13,213.33h59.74a8.54,8.54,0,0,0,8.53-8.53V136.53a8.54,8.54,0,0,0-8.53-8.53H226.13a8.54,8.54,0,0,0-8.53,8.53V204.8A8.54,8.54,0,0,0,226.13,213.33Zm0-76.8h59.74V204.8H226.13Z"/><path class="cls-2" d="M238.93,162.13H256a4.27,4.27,0,1,0,0-8.53H238.93a4.27,4.27,0,0,0,0,8.53Z"/><path class="cls-2" d="M183.47,358.4H149.33a4.27,4.27,0,0,0,0,8.53h34.14a4.27,4.27,0,0,0,0-8.53Z"/><path class="cls-2" d="M149.33,332.8H166.4a4.27,4.27,0,1,0,0-8.53H149.33a4.27,4.27,0,0,0,0,8.53Z"/><path class="cls-2" d="M273.07,170.67H238.93a4.27,4.27,0,0,0,0,8.53h34.14a4.27,4.27,0,0,0,0-8.53Z"/><path class="cls-2" d="M273.07,187.73H238.93a4.27,4.27,0,0,0,0,8.54h34.14a4.27,4.27,0,0,0,0-8.54Z"/><path class="cls-2" d="M362.67,341.33H328.53a4.27,4.27,0,0,0,0,8.54h34.14a4.27,4.27,0,0,0,0-8.54Z"/><path class="cls-2" d="M183.47,341.33H149.33a4.27,4.27,0,0,0,0,8.54h34.14a4.27,4.27,0,0,0,0-8.54Z"/><path class="cls-2" d="M328.53,332.8H345.6a4.27,4.27,0,1,0,0-8.53H328.53a4.27,4.27,0,0,0,0,8.53Z"/><path class="cls-2" d="M375.47,298.67H315.73a8.54,8.54,0,0,0-8.53,8.53v68.27a8.54,8.54,0,0,0,8.53,8.53h59.74a8.54,8.54,0,0,0,8.53-8.53V307.2A8.54,8.54,0,0,0,375.47,298.67Zm-59.74,76.8V307.2h59.74v68.27Z"/><path class="cls-2" d="M362.67,358.4H328.53a4.27,4.27,0,0,0,0,8.53h34.14a4.27,4.27,0,0,0,0-8.53Z"/><path class="cls-2" d="M196.27,298.67H136.53A8.54,8.54,0,0,0,128,307.2v68.27a8.54,8.54,0,0,0,8.53,8.53h59.74a8.54,8.54,0,0,0,8.53-8.53V307.2A8.54,8.54,0,0,0,196.27,298.67Zm-59.74,76.8V307.2h59.74v68.27Z"/><path class="cls-2" d="M299.3,288.42l-39-22.11V226.13a4.27,4.27,0,0,0-8.54,0V266.3l-39.42,22.11a4.27,4.27,0,1,0,4.18,7.44L256,273.7l39.11,22.14a4.18,4.18,0,0,0,2.09.56,4.27,4.27,0,0,0,2.11-8Z"/></svg>