<svg id="Layer_1" data-name="Layer 1" xmlns="http://www.w3.org/2000/svg" viewBox="0 0 512 512"><defs><style>.cls-1{fill:#e7e3f1;}.cls-2{fill:#6360aa;}</style></defs><circle class="cls-1" cx="256" cy="256" r="256"/><path class="cls-2" d="M365.48,152a63.33,63.33,0,1,0,0,89.55A62.9,62.9,0,0,0,365.48,152Zm-10.05,79.5a49.11,49.11,0,1,1,0-69.45A48.82,48.82,0,0,1,355.43,231.54Z"/><path class="cls-2" d="M340.65,189.43H327V175.76a7.11,7.11,0,1,0-14.21,0v13.67H299.09a7.11,7.11,0,1,0,0,14.22h13.68v13.67a7.11,7.11,0,1,0,14.21,0V203.65h13.67a7.11,7.11,0,1,0,0-14.22Z"/><path class="cls-2" d="M279.18,324.71a98.86,98.86,0,0,0-33.78-14.93c11.63-10.07,19.18-26.19,19.18-44.33,0-30.46-21.3-55.24-47.48-55.24S169.62,235,169.62,265.45c0,18.14,7.55,34.26,19.18,44.34A98.51,98.51,0,0,0,155,324.71C137.6,337,128,353.58,128,371.4a7.11,7.11,0,0,0,7.11,7.11h164a7.11,7.11,0,0,0,7.11-7.11C306.2,353.58,296.61,337,279.18,324.71Zm-14.6,39.58v-12.7a7.11,7.11,0,1,0-14.21,0v12.7H183.84v-12.7a7.11,7.11,0,0,0-14.22,0v12.7H143c2.2-10.43,9.2-20.16,20.26-28,14.3-10.08,33.44-15.64,53.88-15.64s39.59,5.56,53.88,15.64c11.06,7.8,18.07,17.53,20.26,28Zm-80.74-98.84c0-22.62,14.92-41,33.26-41s33.27,18.4,33.27,41-14.93,41-33.27,41S183.84,288.07,183.84,265.45Z"/></svg>