<svg id="Layer_1" data-name="Layer 1" xmlns="http://www.w3.org/2000/svg" viewBox="0 0 512 512"><defs><style>.cls-1{fill:#e7e3f1;}.cls-2{fill:#6360aa;}</style></defs><circle class="cls-1" cx="256" cy="256" r="256"/><path class="cls-2" d="M331.2,145.69H299.27A13,13,0,0,0,287,136.85h-13.5a21.65,21.65,0,0,0-34.92,0H225a13,13,0,0,0-12.31,8.84H180.8a17.44,17.44,0,0,0-17.41,17.42V366.58A17.43,17.43,0,0,0,180.8,384H331.2a17.43,17.43,0,0,0,17.41-17.42V163.11A17.44,17.44,0,0,0,331.2,145.69ZM225,176.1H287a13,13,0,0,0,9.76-4.42h25.91V358H189.37V171.68h25.91A13,13,0,0,0,225,176.1Zm0-31h15.72a4.12,4.12,0,0,0,3.58-2.06,13.4,13.4,0,0,1,23.31,0,4.15,4.15,0,0,0,3.59,2.06H287a4.71,4.71,0,0,1,4.7,4.7v13.27a4.71,4.71,0,0,1-4.7,4.7H225a4.71,4.71,0,0,1-4.7-4.7V149.84A4.71,4.71,0,0,1,225,145.14ZM340.32,366.58a9.14,9.14,0,0,1-9.12,9.13H180.8a9.14,9.14,0,0,1-9.12-9.13V163.11A9.13,9.13,0,0,1,180.8,154H212v9.12c0,.09,0,.18,0,.28H185.23a4.14,4.14,0,0,0-4.15,4.14V362.16a4.15,4.15,0,0,0,4.15,4.15H326.77a4.15,4.15,0,0,0,4.15-4.15V167.53a4.14,4.14,0,0,0-4.15-4.14H300c0-.1,0-.19,0-.28V154H331.2a9.13,9.13,0,0,1,9.12,9.12Z"/><path class="cls-2" d="M256,154a4.17,4.17,0,1,0-2.93-1.22A4.18,4.18,0,0,0,256,154Z"/><path class="cls-2" d="M229.46,215.91h75.2a4.15,4.15,0,0,0,0-8.29h-75.2a4.15,4.15,0,1,0,0,8.29Z"/><path class="cls-2" d="M229.46,260.15h75.2a4.15,4.15,0,0,0,0-8.3h-75.2a4.15,4.15,0,0,0,0,8.3Z"/><path class="cls-2" d="M229.46,304.38h13.27a4.15,4.15,0,1,0,0-8.29H229.46a4.15,4.15,0,1,0,0,8.29Z"/><path class="cls-2" d="M229.46,238h75.2a4.15,4.15,0,0,0,0-8.29h-75.2a4.15,4.15,0,1,0,0,8.29Z"/><path class="cls-2" d="M229.46,282.26h17.69a4.15,4.15,0,1,0,0-8.29H229.46a4.15,4.15,0,1,0,0,8.29Z"/><path class="cls-2" d="M229.46,326.5h17.69a4.15,4.15,0,0,0,0-8.3H229.46a4.15,4.15,0,1,0,0,8.3Z"/><path class="cls-2" d="M207.34,215.91h4.43a4.15,4.15,0,0,0,0-8.29h-4.43a4.15,4.15,0,0,0,0,8.29Z"/><path class="cls-2" d="M207.34,260.15h4.43a4.15,4.15,0,0,0,0-8.3h-4.43a4.15,4.15,0,0,0,0,8.3Z"/><path class="cls-2" d="M207.34,304.38h4.43a4.15,4.15,0,0,0,0-8.29h-4.43a4.15,4.15,0,0,0,0,8.29Z"/><path class="cls-2" d="M207.34,238h4.43a4.15,4.15,0,0,0,0-8.29h-4.43a4.15,4.15,0,0,0,0,8.29Z"/><path class="cls-2" d="M207.34,282.26h4.43a4.15,4.15,0,0,0,0-8.29h-4.43a4.15,4.15,0,0,0,0,8.29Z"/><path class="cls-2" d="M207.34,326.5h4.43a4.15,4.15,0,0,0,0-8.3h-4.43a4.15,4.15,0,0,0,0,8.3Z"/><path class="cls-2" d="M282.54,274a26.27,26.27,0,1,0,15.63,47.35l.13-.08a3.88,3.88,0,0,0,.31-.26,26.25,26.25,0,0,0-16.07-47Zm-4.15,8.78v13.34H265.06A18,18,0,0,1,278.39,282.75Zm-13.33,21.63h15.41l9.24,12.33a18,18,0,0,1-24.65-12.33Zm31.28,7.35-9.65-12.88v-16.1a18,18,0,0,1,9.65,29Z"/></svg>