<svg id="Layer_1" data-name="Layer 1" height="100px" xmlns="http://www.w3.org/2000/svg" viewBox="0 0 512 512"><defs><style>.cls-1{fill:#ffe2a9;}.cls-2{fill:#f9c04d;}</style></defs><circle class="cls-1" cx="256" cy="256" r="256"/><path class="cls-2" d="M164.47,256a6.32,6.32,0,0,0,6.31,6.31H290.93l-23.43,23.4a6.29,6.29,0,0,0,8.87,8.91l34.15-34.15a6.3,6.3,0,0,0,0-8.91l-34.15-34.15a6.3,6.3,0,1,0-8.91,8.92l23.4,23.4H170.78A6.28,6.28,0,0,0,164.47,256Z"/><path class="cls-2" d="M309.86,345.73A37.71,37.71,0,0,0,347.53,308V204a37.73,37.73,0,0,0-37.67-37.7h-104A37.71,37.71,0,0,0,168.14,204v21.39a6.29,6.29,0,0,0,12.58,0V204a25.16,25.16,0,0,1,25.09-25.12H309.86A25.13,25.13,0,0,1,335,204V308a25.16,25.16,0,0,1-25.09,25.12h-104A25.13,25.13,0,0,1,180.72,308V286.9a6.29,6.29,0,1,0-12.58,0V308a37.73,37.73,0,0,0,37.67,37.7Z"/></svg>