<svg id="Layer_1" data-name="Layer 1" height="100px" xmlns="http://www.w3.org/2000/svg" viewBox="0 0 512 512"><defs><style>.cls-1{fill:#c3e3c9;}.cls-2{fill:#39b777;}</style></defs><circle class="cls-1" cx="256" cy="256" r="256"/><path class="cls-2" d="M341.22,249.75H221.14l23.4-23.4a6.3,6.3,0,0,0-8.91-8.92l-34.15,34.15a6.3,6.3,0,0,0,0,8.91l34.15,34.15a6.29,6.29,0,1,0,8.87-8.91l-23.43-23.4H341.22a6.29,6.29,0,1,0,0-12.58Z"/><path class="cls-2" d="M202.14,345.73H306.19A37.73,37.73,0,0,0,343.86,308V286.9a6.29,6.29,0,1,0-12.58,0V308a25.13,25.13,0,0,1-25.09,25.12h-104A25.16,25.16,0,0,1,177.05,308V204a25.13,25.13,0,0,1,25.09-25.12H306.19A25.16,25.16,0,0,1,331.28,204v21.39a6.29,6.29,0,0,0,12.58,0V204a37.71,37.71,0,0,0-37.67-37.7h-104A37.73,37.73,0,0,0,164.47,204V308a37.71,37.71,0,0,0,37.67,37.7Z"/></svg>