<svg id="Layer_1" data-name="Layer 1" height="100px" xmlns="http://www.w3.org/2000/svg" viewBox="0 0 512 512"><defs><style>.cls-1{fill:#e8e4f2;}.cls-2{fill:#6360ab;}</style></defs><circle class="cls-1" cx="256" cy="256" r="256"/><path class="cls-2" d="M384,255.87a128,128,0,1,0-210.69,97.44c.26.26.51.26.51.51,2.31,1.8,4.61,3.59,7.17,5.38a35.06,35.06,0,0,1,3.59,2.8,127.77,127.77,0,0,0,143.36,0c1.28-.77,2.3-1.78,3.58-2.56,2.3-1.78,4.86-3.57,7.17-5.36.25-.26.51-.26.51-.51C366.34,329.78,384,294.75,384,255.87Zm-128,112a111.1,111.1,0,0,1-64.26-20.47A53.3,53.3,0,0,1,193,341.3a67.16,67.16,0,0,1,6.66-15.86,56.4,56.4,0,0,1,10.24-13.06A72,72,0,0,1,223,302.16a64.53,64.53,0,0,1,15.61-6.4,67.94,67.94,0,0,1,64.26,16.37,64.11,64.11,0,0,1,13.82,20.72,68.3,68.3,0,0,1,3.84,14.57A112.45,112.45,0,0,1,256,367.89Zm-39.17-118.4a41.93,41.93,0,0,1,0-32.75A43.65,43.65,0,0,1,239.62,194,40,40,0,0,1,256,190.66,39.13,39.13,0,0,1,272.38,194a43.65,43.65,0,0,1,22.79,22.76,40,40,0,0,1,3.33,16.36,39,39,0,0,1-3.33,16.37,43.62,43.62,0,0,1-22.79,22.77,43.41,43.41,0,0,1-33,0,45.61,45.61,0,0,1-13.57-9.2,40.59,40.59,0,0,1-9-13.57Zm118.79,84.89c0-.51-.26-.76-.26-1.28a83.48,83.48,0,0,0-11-22.49,77.79,77.79,0,0,0-17.41-18.16,83,83,0,0,0-16.64-9.73,45,45,0,0,0,7.43-6.13,67.42,67.42,0,0,0,10-12.54,58,58,0,0,0,8.45-31,59.36,59.36,0,0,0-4.61-23.52A60.89,60.89,0,0,0,298.5,190.4a61.61,61.61,0,0,0-19.2-12.8,62.61,62.61,0,0,0-47.11,0,58,58,0,0,0-19.2,13,61.41,61.41,0,0,0-12.8,19.18,59.36,59.36,0,0,0-4.61,23.52,55.48,55.48,0,0,0,2.31,16.11,61,61,0,0,0,16.38,27.38A45.93,45.93,0,0,0,222,283a81.42,81.42,0,0,0-16.64,10,89.15,89.15,0,0,0-17.41,17.9,80.13,80.13,0,0,0-11,22.5,2.73,2.73,0,0,0-.26,1.28c-20.22-20.46-32.77-48.08-32.77-78.77,0-61.63,50.43-112,112.13-112s112.13,50.38,112.13,112A111.37,111.37,0,0,1,335.62,334.38Z"/></svg>